<svg height="512pt" viewBox="0 -92 512 512" width="512pt" xmlns="http://www.w3.org/2000/svg"><path d="m344 224h32v32h-32zm0 0" fill="#ffce54"/><path d="m312 256h32v32h-32zm0 0" fill="#ffce54"/><path d="m344 256h32v32h-32zm0 0" fill="#f6bb42"/><path d="m344 288h32v32h-32zm0 0" fill="#ffce54"/><path d="m312 288h32v32h-32zm0 0" fill="#f6bb42"/><path d="m312 288v32h-32v-32zm0 0" fill="#ffce54"/><path d="m136 288h32v32h-32zm0 0" fill="#ffce54"/><path d="m136 256h32v32h-32zm0 0" fill="#f6bb42"/><g fill="#ffce54"><path d="m136 224h32v32h-32zm0 0"/><path d="m168 256h32v32h-32zm0 0"/><path d="m232 288v32h-32v-32zm0 0"/></g><path d="m168 288h32v32h-32zm0 0" fill="#f6bb42"/><path d="m136 168h240v24h-240zm0 0" fill="#ed5565"/><path d="m376 192v32h-32v32h-32v32h-32v32h-48v-32h-32v-32h-32v-32h-32v-32zm0 0" fill="#656d78"/><path d="m256 0 248 64.078125v23.921875l-24-6.160156-224-57.917969-224 57.917969-24 6.160156v-23.921875zm0 0" fill="#ed5565"/><path d="m256 88h80v32h-80zm0 0" fill="#5d9cec"/><path d="m176 88h80v32h-80zm0 0" fill="#5d9cec"/><path d="m256 23.921875 224 57.910156v238.167969h-104v-152h-240v152h-104v-238.160156zm80 96.078125v-32h-160v32zm0 0" fill="#e6e9ed"/><path d="m504 328.015625h-496c-4.425781 0-8-3.574219-8-8 0-4.421875 3.574219-8 8-8h496c4.425781 0 8 3.578125 8 8 0 4.425781-3.574219 8-8 8zm0 0" fill="#434a54"/><path d="m256 128.03125c-4.425781 0-8-3.574219-8-8v-32.007812c0-4.421876 3.574219-8 8-8s8 3.578124 8 8v32.007812c0 4.425781-3.574219 8-8 8zm0 0" fill="#e6e9ed"/></svg>