<?xml version="1.0" encoding="UTF-8" standalone="no"?>
<!-- Created with Inkscape (http://www.inkscape.org/) -->

<svg
   xmlns:dc="http://purl.org/dc/elements/1.1/"
   xmlns:cc="http://creativecommons.org/ns#"
   xmlns:rdf="http://www.w3.org/1999/02/22-rdf-syntax-ns#"
   xmlns:svg="http://www.w3.org/2000/svg"
   xmlns="http://www.w3.org/2000/svg"
   xmlns:sodipodi="http://sodipodi.sourceforge.net/DTD/sodipodi-0.dtd"
   xmlns:inkscape="http://www.inkscape.org/namespaces/inkscape"
   width="184.42719mm"
   height="110.39428mm"
   viewBox="0 0 184.42719 110.39428"
   version="1.1"
   id="svg8"
   inkscape:version="0.92.4 (5da689c313, 2019-01-14)"
   sodipodi:docname="dibujo.svg">
  <defs
     id="defs2" />
  <sodipodi:namedview
     id="base"
     pagecolor="#ffffff"
     bordercolor="#666666"
     borderopacity="1.0"
     inkscape:pageopacity="0.0"
     inkscape:pageshadow="2"
     inkscape:zoom="0.5"
     inkscape:cx="358.47621"
     inkscape:cy="295.90465"
     inkscape:document-units="mm"
     inkscape:current-layer="layer1"
     showgrid="false"
     inkscape:window-width="1366"
     inkscape:window-height="705"
     inkscape:window-x="-8"
     inkscape:window-y="-8"
     inkscape:window-maximized="1"
     inkscape:snap-grids="false"
     fit-margin-top="0"
     fit-margin-left="0"
     fit-margin-right="0"
     fit-margin-bottom="0" />
  <metadata
     id="metadata5">
    <rdf:RDF>
      <cc:Work
         rdf:about="">
        <dc:format>image/svg+xml</dc:format>
        <dc:type
           rdf:resource="http://purl.org/dc/dcmitype/StillImage" />
        <dc:title></dc:title>
      </cc:Work>
    </rdf:RDF>
  </metadata>
  <g
     inkscape:label="Capa 1"
     inkscape:groupmode="layer"
     id="layer1"
     transform="translate(-10.986504,-10.897162)">
    <g
       id="g3884"
       transform="matrix(0.05157791,0,0,0.04419585,93.385342,10.897183)">
      <path
         id="path3783"
         d="M 251.10937,101.83984 V 497 H 66.238281 V 228.32031 c 0,-19.03906 10.511719,-36.30078 27.410157,-45.03906 l 49.421872,-25.5625 z m 0,0"
         inkscape:connector-curvature="0"
         style="fill:#1b6aa6" />
      <path
         id="path3785"
         d="M 251.10937,101.83984 V 497 H 143.07031 V 157.71875 Z m 0,0"
         inkscape:connector-curvature="0"
         style="fill:#173755" />
      <path
         id="path3787"
         d="M 158.07031,434.28906 V 497 h -30 v -62.71094 c 0,-8.28906 6.71875,-15 15,-15 8.28906,0 15,6.71094 15,15 z m 0,0"
         inkscape:connector-curvature="0"
         style="fill:#fff49c" />
      <g
         id="g3795"
         style="fill:#d9eeff">
        <path
           id="path3789"
           d="m 173.67187,374.17187 c 0,8.27735 -6.71093,15 -15,15 H 66.238281 v -30 h 92.433589 c 8.28907,0 15,6.71875 15,15 z m 0,0"
           inkscape:connector-curvature="0" />
        <path
           id="path3791"
           d="m 173.67187,319.10937 c 0,8.28125 -6.71093,15 -15,15 H 66.238281 v -30 h 92.433589 c 8.28907,0 15,6.71094 15,15 z m 0,0"
           inkscape:connector-curvature="0" />
        <path
           id="path3793"
           d="m 173.67187,263.26172 c 0,8.27734 -6.71093,15 -15,15 H 66.238281 v -30 h 92.433589 c 8.28907,0 15,6.70703 15,15 z m 0,0"
           inkscape:connector-curvature="0" />
      </g>
      <path
         id="path3797"
         d="M 158.07031,434.28906 V 497 h -15 v -77.71094 c 8.28906,0 15,6.71094 15,15 z m 0,0"
         inkscape:connector-curvature="0"
         style="fill:#fee276" />
      <path
         id="path3799"
         d="m 173.67187,374.17187 c 0,8.27735 -6.71093,15 -15,15 h -15.60156 v -30 h 15.60156 c 8.28907,0 15,6.71875 15,15 z m 0,0"
         inkscape:connector-curvature="0"
         style="fill:#b0e3fc" />
      <path
         id="path3801"
         d="m 173.67187,319.10937 c 0,8.28125 -6.71093,15 -15,15 h -15.60156 v -30 h 15.60156 c 8.28907,0 15,6.71094 15,15 z m 0,0"
         inkscape:connector-curvature="0"
         style="fill:#b0e3fc" />
      <path
         id="path3803"
         d="m 158.67187,278.26172 h -15.60156 v -30 h 15.60156 c 8.28907,0 15,6.70703 15,15 0,8.27734 -6.71093,15 -15,15 z m 0,0"
         inkscape:connector-curvature="0"
         style="fill:#b0e3fc" />
      <path
         id="path3805"
         d="M 445.96875,110.76563 V 497 H 221.10937 V 18.34375 Z m 0,0"
         inkscape:connector-curvature="0"
         style="fill:#1b6aa6" />
      <path
         id="path3807"
         d="M 445.96875,110.76563 V 497 H 333.53906 V 64.554688 Z m 0,0"
         inkscape:connector-curvature="0"
         style="fill:#173755" />
      <path
         id="path3809"
         d="M 318.53906,434.28906 V 497 h -30 v -62.71094 c 0,-8.28906 6.71094,-15 15,-15 8.28125,0 15,6.71094 15,15 z m 0,0"
         inkscape:connector-curvature="0"
         style="fill:#fff49c" />
      <path
         id="path3811"
         d="M 378.53906,434.28906 V 497 h -30 v -62.71094 c 0,-8.28906 6.71094,-15 15,-15 8.28125,0 15,6.71094 15,15 z m 0,0"
         inkscape:connector-curvature="0"
         style="fill:#fee276" />
      <path
         id="path3813"
         d="m 303.30469,308.66406 c 8.28515,0 15,-6.71484 15,-15 v -30.40625 c 0,-8.28515 -6.71485,-15 -15,-15 -8.28516,0 -15,6.71485 -15,15 v 30.40625 c 0,8.28516 6.71484,15 15,15 z m 0,0"
         inkscape:connector-curvature="0"
         style="fill:#ffffff" />
      <path
         id="path3815"
         d="m 363.57031,308.66406 c 8.28125,0 15,-6.71484 15,-15 v -30.40625 c 0,-8.28515 -6.71875,-15 -15,-15 -8.28515,0 -15,6.71485 -15,15 v 30.40625 c 0,8.28516 6.71485,15 15,15 z m 0,0"
         inkscape:connector-curvature="0"
         style="fill:#d9eeff" />
      <path
         id="path3817"
         d="m 303.50781,389.16406 c 8.28125,0 15,-6.71484 15,-15 v -30.40625 c 0,-8.28515 -6.71875,-15 -15,-15 -8.28515,0 -15,6.71485 -15,15 v 30.40625 c 0,8.28516 6.71485,15 15,15 z m 0,0"
         inkscape:connector-curvature="0"
         style="fill:#ffffff" />
      <path
         id="path3819"
         d="m 363.76953,328.75781 c -8.28125,0 -15,6.71485 -15,15 v 30.40625 c 0,8.28516 6.71875,15 15,15 8.28516,0 15,-6.71484 15,-15 v -30.40625 c 0,-8.28515 -6.71484,-15 -15,-15 z m 0,0"
         inkscape:connector-curvature="0"
         style="fill:#d9eeff" />
      <path
         id="path3821"
         d="m 303.40625,228.43359 c 8.28125,0 15,-6.71484 15,-15 v -30.40625 c 0,-8.28515 -6.71875,-15 -15,-15 -8.28516,0 -15,6.71485 -15,15 v 30.40625 c 0,8.28516 6.71484,15 15,15 z m 0,0"
         inkscape:connector-curvature="0"
         style="fill:#ffffff" />
      <path
         id="path3823"
         d="m 363.67187,228.43359 c 8.28125,0 15,-6.71484 15,-15 v -30.40625 c 0,-8.28515 -6.71875,-15 -15,-15 -8.28515,0 -15,6.71485 -15,15 v 30.40625 c 0,8.28516 6.71485,15 15,15 z m 0,0"
         inkscape:connector-curvature="0"
         style="fill:#d9eeff" />
      <path
         id="path3825"
         d="m 481.08203,178.12109 c -2.39062,5.78907 -7.98047,9.30078 -13.88281,9.30078 -1.89844,0 -3.82813,-0.36328 -5.69922,-1.13281 L 333.53906,133.69141 v -32.42969 l 139.3711,57.27734 c 7.66015,3.15235 11.32031,11.92188 8.17187,19.58203 z m 0,0"
         inkscape:connector-curvature="0"
         style="fill:#368bb2" />
      <path
         id="path3827"
         d="M 461.5,134.23047 333.53906,81.628906 V 49.199219 l 139.3711,57.281251 c 7.66015,3.14844 11.32031,11.91016 8.17187,19.57812 -2.39062,5.79297 -7.98047,9.30078 -13.88281,9.30078 -1.89844,0 -3.82813,-0.35937 -5.69922,-1.1289 z m 0,0"
         inkscape:connector-curvature="0"
         style="fill:#368bb2" />
      <path
         id="path3829"
         d="m 445.96875,110.76563 v 55.1914 L 333.53906,119.73438 221.10937,73.523438 V 18.34375 Z m 0,0"
         inkscape:connector-curvature="0"
         style="fill:#fff49c" />
      <path
         id="path3831"
         d="m 445.96875,110.76563 v 55.1914 L 333.53906,119.73438 V 64.554688 Z m 0,0"
         inkscape:connector-curvature="0"
         style="fill:#fee276" />
      <path
         id="path3833"
         d="m 481.08203,126.05859 c -2.39062,5.79297 -7.98047,9.30078 -13.88281,9.30078 -1.89844,0 -3.82813,-0.35937 -5.69922,-1.1289 L 445.96875,127.85156 333.53906,81.628906 221.10937,35.421875 205.17969,28.871094 C 197.51953,25.71875 193.85937,16.960938 197.01172,9.300781 200.16016,1.640625 208.92187,-2.019531 216.58203,1.128906 l 4.52734,1.863282 112.42969,46.207031 112.42969,46.210937 26.94141,11.070314 c 7.66015,3.14844 11.32031,11.91016 8.17187,19.57812 z m 0,0"
         inkscape:connector-curvature="0"
         style="fill:#d9eeff" />
      <path
         id="path3835"
         d="m 481.08203,178.12109 c -2.39062,5.78907 -7.98047,9.30078 -13.88281,9.30078 -1.89844,0 -3.82813,-0.36328 -5.69922,-1.13281 L 445.96875,179.91016 333.53906,133.69141 221.10937,87.480469 205.17969,80.929688 c -7.66016,-3.140626 -11.32032,-11.910157 -8.16797,-19.570313 3.14844,-7.660156 11.91015,-11.320313 19.57031,-8.167969 l 4.52734,1.859375 112.42969,46.210939 112.42969,46.20703 26.94141,11.07031 c 7.66015,3.15235 11.32031,11.92188 8.17187,19.58203 z m 0,0"
         inkscape:connector-curvature="0"
         style="fill:#d9eeff" />
      <path
         id="path3837"
         d="m 512,497 c 0,8.28125 -6.71875,15 -15,15 H 15 C 6.71875,512 0,505.28125 0,497 0,488.71875 6.71875,482 15,482 h 482 c 8.28125,0 15,6.71875 15,15 z m 0,0"
         inkscape:connector-curvature="0"
         style="fill:#00db7e" />
      <path
         id="path3839"
         d="m 512,497 c 0,8.28125 -6.71875,15 -15,15 H 256 v -30 h 241 c 8.28125,0 15,6.71875 15,15 z m 0,0"
         inkscape:connector-curvature="0"
         style="fill:#00a863" />
      <path
         id="path3841"
         d="m 481.08203,178.12109 c -2.39062,5.78907 -7.98047,9.30078 -13.88281,9.30078 -1.89844,0 -3.82813,-0.36328 -5.69922,-1.13281 L 333.53906,133.69141 v -32.42969 l 139.3711,57.27734 c 7.66015,3.15235 11.32031,11.92188 8.17187,19.58203 z m 0,0"
         inkscape:connector-curvature="0"
         style="fill:#b0e3fc" />
      <path
         id="path3843"
         d="M 461.5,134.23047 333.53906,81.628906 V 49.199219 l 139.3711,57.281251 c 7.66015,3.14844 11.32031,11.91016 8.17187,19.57812 -2.39062,5.79297 -7.98047,9.30078 -13.88281,9.30078 -1.89844,0 -3.82813,-0.35937 -5.69922,-1.1289 z m 0,0"
         inkscape:connector-curvature="0"
         style="fill:#b0e3fc" />
    </g>
    <g
       id="g4007"
       transform="matrix(0.04892037,0,0,0.06216482,10.986504,71.320254)">
      <path
         id="path3936"
         d="m 344,224 h 32 v 32 h -32 z m 0,0"
         inkscape:connector-curvature="0"
         style="fill:#ffce54" />
      <path
         id="path3938"
         d="m 312,256 h 32 v 32 h -32 z m 0,0"
         inkscape:connector-curvature="0"
         style="fill:#ffce54" />
      <path
         id="path3940"
         d="m 344,256 h 32 v 32 h -32 z m 0,0"
         inkscape:connector-curvature="0"
         style="fill:#f6bb42" />
      <path
         id="path3942"
         d="m 344,288 h 32 v 32 h -32 z m 0,0"
         inkscape:connector-curvature="0"
         style="fill:#ffce54" />
      <path
         id="path3944"
         d="m 312,288 h 32 v 32 h -32 z m 0,0"
         inkscape:connector-curvature="0"
         style="fill:#f6bb42" />
      <path
         id="path3946"
         d="m 312,288 v 32 h -32 v -32 z m 0,0"
         inkscape:connector-curvature="0"
         style="fill:#ffce54" />
      <path
         id="path3948"
         d="m 136,288 h 32 v 32 h -32 z m 0,0"
         inkscape:connector-curvature="0"
         style="fill:#ffce54" />
      <path
         id="path3950"
         d="m 136,256 h 32 v 32 h -32 z m 0,0"
         inkscape:connector-curvature="0"
         style="fill:#f6bb42" />
      <g
         id="g3958"
         style="fill:#ffce54">
        <path
           id="path3952"
           d="m 136,224 h 32 v 32 h -32 z m 0,0"
           inkscape:connector-curvature="0" />
        <path
           id="path3954"
           d="m 168,256 h 32 v 32 h -32 z m 0,0"
           inkscape:connector-curvature="0" />
        <path
           id="path3956"
           d="m 232,288 v 32 h -32 v -32 z m 0,0"
           inkscape:connector-curvature="0" />
      </g>
      <path
         id="path3960"
         d="m 168,288 h 32 v 32 h -32 z m 0,0"
         inkscape:connector-curvature="0"
         style="fill:#f6bb42" />
      <path
         id="path3962"
         d="m 136,168 h 240 v 24 H 136 Z m 0,0"
         inkscape:connector-curvature="0"
         style="fill:#ed5565" />
      <path
         id="path3964"
         d="m 376,192 v 32 h -32 v 32 h -32 v 32 h -32 v 32 h -48 v -32 h -32 v -32 h -32 v -32 h -32 v -32 z m 0,0"
         inkscape:connector-curvature="0"
         style="fill:#656d78" />
      <path
         id="path3966"
         d="M 256,0 504,64.078125 V 88 L 480,81.839844 256,23.921875 32,81.839844 8,88 V 64.078125 Z m 0,0"
         inkscape:connector-curvature="0"
         style="fill:#ed5565" />
      <path
         id="path3968"
         d="m 256,88 h 80 v 32 h -80 z m 0,0"
         inkscape:connector-curvature="0"
         style="fill:#5d9cec" />
      <path
         id="path3970"
         d="m 176,88 h 80 v 32 h -80 z m 0,0"
         inkscape:connector-curvature="0"
         style="fill:#5d9cec" />
      <path
         id="path3972"
         d="M 256,23.921875 480,81.832031 V 320 H 376 V 168 H 136 V 320 H 32 V 81.839844 Z M 336,120 V 88 H 176 v 32 z m 0,0"
         inkscape:connector-curvature="0"
         style="fill:#e6e9ed" />
      <path
         id="path3974"
         d="M 504,328.01562 H 8 c -4.425781,0 -8,-3.57421 -8,-8 0,-4.42187 3.574219,-8 8,-8 h 496 c 4.42578,0 8,3.57813 8,8 0,4.42579 -3.57422,8 -8,8 z m 0,0"
         inkscape:connector-curvature="0"
         style="fill:#434a54" />
      <path
         id="path3976"
         d="m 256,128.03125 c -4.42578,0 -8,-3.57422 -8,-8 V 88.023438 c 0,-4.421876 3.57422,-8 8,-8 4.42578,0 8,3.578124 8,8 v 32.007812 c 0,4.42578 -3.57422,8 -8,8 z m 0,0"
         inkscape:connector-curvature="0"
         style="fill:#e6e9ed" />
    </g>
    <g
       id="g4548"
       transform="matrix(0.05846818,0,0,0.04370349,164.49524,69.307143)">
      <polygon
         id="polygon4445"
         points="256,0 0,141.241 0,512 44.138,512 44.138,194.207 467.862,194.207 467.862,512 512,512 512,150.069 "
         style="fill:#4398d1" />
      <g
         id="g4451">
	<path
   id="path4447"
   d="M 467.862,512 H 512 V 225.457 c -14.539,10.24 -29.246,20.039 -44.138,29.396 z"
   style="fill:#3e8cc7"
   inkscape:connector-curvature="0" />

	<path
   id="path4449"
   d="M 0,512 H 44.138 V 429.992 C 28.954,433.699 14.239,437.054 0,440.055 Z"
   style="fill:#3e8cc7"
   inkscape:connector-curvature="0" />

</g>
      <rect
         id="rect4453"
         height="70.621002"
         width="423.724"
         style="fill:#e5e5e5"
         y="194.207"
         x="44.138" />
      <rect
         id="rect4455"
         height="17.655001"
         width="423.724"
         style="fill:#cfcfcf"
         y="220.69"
         x="44.138" />
      <rect
         id="rect4457"
         height="35.310001"
         width="88.276001"
         style="fill:#e5e5e5"
         y="123.586"
         x="211.862" />
      <rect
         id="rect4459"
         height="105.931"
         width="105.931"
         style="fill:#fdb62f"
         y="300.138"
         x="326.621" />
      <rect
         id="rect4461"
         height="35.310001"
         width="35.310001"
         style="fill:#fd7b2f"
         y="300.138"
         x="361.931" />
      <path
         id="path4463"
         d="m 326.621,406.069 h 105.931 v -71.415 c -30.455,25.556 -66.904,42.964 -105.931,50.582 z"
         style="fill:#ffa230"
         inkscape:connector-curvature="0" />
      <rect
         id="rect4465"
         height="105.931"
         width="105.931"
         style="fill:#fdb62f"
         y="406.069"
         x="326.621" />
      <rect
         id="rect4467"
         height="35.310001"
         width="35.310001"
         style="fill:#fd7b2f"
         y="406.069"
         x="361.931" />
      <path
         id="path4469"
         d="m 326.621,512 h 105.931 v -71.415 c -30.455,25.556 -66.904,42.964 -105.931,50.582 z"
         style="fill:#ffa230"
         inkscape:connector-curvature="0" />
      <rect
         id="rect4471"
         height="105.931"
         width="105.931"
         style="fill:#fdb62f"
         y="406.069"
         x="220.69" />
      <rect
         id="rect4473"
         height="35.310001"
         width="35.310001"
         style="fill:#fd7b2f"
         y="406.069"
         x="256" />
      <path
         id="path4475"
         d="m 220.69,512 h 105.931 v -71.415 c -30.455,25.556 -66.904,42.964 -105.931,50.582 z"
         style="fill:#ffa230"
         inkscape:connector-curvature="0" />
      <rect
         id="rect4477"
         height="17.655001"
         width="88.276001"
         style="fill:#3e8cc7"
         y="158.897"
         x="211.862" />
      <g
         id="g4479">
</g>
      <g
         id="g4481">
</g>
      <g
         id="g4483">
</g>
      <g
         id="g4485">
</g>
      <g
         id="g4487">
</g>
      <g
         id="g4489">
</g>
      <g
         id="g4491">
</g>
      <g
         id="g4493">
</g>
      <g
         id="g4495">
</g>
      <g
         id="g4497">
</g>
      <g
         id="g4499">
</g>
      <g
         id="g4501">
</g>
      <g
         id="g4503">
</g>
      <g
         id="g4505">
</g>
      <g
         id="g4507">
</g>
    </g>
    <ellipse
       style="fill:#2a7fff;stroke-width:0.13553007"
       id="path4015-59"
       cx="188.45894"
       cy="101.88869"
       rx="6.4255953"
       ry="5.4932218" />
    <ellipse
       style="fill:#2a7fff;stroke-width:0.13553007"
       id="path4015-59-5"
       cx="30.238096"
       cy="101.43512"
       rx="6.4255953"
       ry="5.4932218" />
    <ellipse
       style="fill:#2a7fff;stroke-width:0.13553007"
       id="path4015-59-8"
       cx="188.9881"
       cy="115.79822"
       rx="6.4255953"
       ry="5.4932218" />
    <ellipse
       style="fill:#2a7fff;stroke-width:0.13553007"
       id="path4015-59-52"
       cx="109.6131"
       cy="44.511906"
       rx="6.4255953"
       ry="5.4932218" />
    <g
       id="g4923"
       transform="matrix(0.06304525,0,0,0.06614583,89.958334,64.695834)">
      <g
         id="g4841">
	<path
   id="path4835"
   d="m 128,160 c 0,-8.832 -7.168,-16 -16,-16 H 16 c -8.832,0 -16,7.168 -16,16 0,8.832 7.168,16 16,16 h 96 c 8.832,0 16,-7.168 16,-16 z"
   style="fill:#ffc107"
   inkscape:connector-curvature="0" />

	<path
   id="path4837"
   d="M 112,208 H 48 c -8.832,0 -16,7.168 -16,16 0,8.832 7.168,16 16,16 h 64 c 8.832,0 16,-7.168 16,-16 0,-8.832 -7.168,-16 -16,-16 z"
   style="fill:#ffc107"
   inkscape:connector-curvature="0" />

	<path
   id="path4839"
   d="M 112,272 H 80 c -8.832,0 -16,7.168 -16,16 0,8.832 7.168,16 16,16 h 32 c 8.832,0 16,-7.168 16,-16 0,-8.832 -7.168,-16 -16,-16 z"
   style="fill:#ffc107"
   inkscape:connector-curvature="0" />

</g>
      <path
         id="path4843"
         d="m 509.728,263.776 -48,-80 C 458.848,178.944 453.632,176 448,176 H 336 c -8.832,0 -16,7.168 -16,16 v 160 c 0,8.832 7.168,16 16,16 h 160 c 8.832,0 16,-7.168 16,-16 v -80 c 0,-2.912 -0.768,-5.76 -2.272,-8.224 z"
         style="fill:#f44336"
         inkscape:connector-curvature="0" />
      <polygon
         id="polygon4845"
         points="438.944,208 477.344,272 384,272 384,208 "
         style="fill:#fafafa" />
      <path
         id="path4847"
         d="M 336,112 H 112 c -8.832,0 -16,7.168 -16,16 v 224 c 0,8.832 7.168,16 16,16 H 352 V 128 c 0,-8.832 -7.168,-16 -16,-16 z"
         style="fill:#ffc107"
         inkscape:connector-curvature="0" />
      <circle
         id="circle4849"
         r="32"
         cy="352"
         cx="432"
         style="fill:#fafafa" />
      <path
         id="path4851"
         d="m 432,400 c -26.464,0 -48,-21.536 -48,-48 0,-26.464 21.536,-48 48,-48 26.464,0 48,21.536 48,48 0,26.464 -21.536,48 -48,48 z m 0,-64 c -8.8,0 -16,7.2 -16,16 0,8.8 7.2,16 16,16 8.8,0 16,-7.2 16,-16 0,-8.8 -7.2,-16 -16,-16 z"
         style="fill:#455a64"
         inkscape:connector-curvature="0" />
      <path
         id="path4853"
         d="M 352,368 H 112 c -8.832,0 -16,-7.168 -16,-16 v -48 h 256 z"
         style="fill:#f44336"
         inkscape:connector-curvature="0" />
      <circle
         id="circle4855"
         r="32"
         cy="352"
         cx="208"
         style="fill:#fafafa" />
      <path
         id="path4857"
         d="m 208,400 c -26.464,0 -48,-21.536 -48,-48 0,-26.464 21.536,-48 48,-48 26.464,0 48,21.536 48,48 0,26.464 -21.536,48 -48,48 z m 0,-64 c -8.832,0 -16,7.2 -16,16 0,8.8 7.168,16 16,16 8.832,0 16,-7.2 16,-16 0,-8.8 -7.168,-16 -16,-16 z"
         style="fill:#455a64"
         inkscape:connector-curvature="0" />
      <g
         id="g4859">
</g>
      <g
         id="g4861">
</g>
      <g
         id="g4863">
</g>
      <g
         id="g4865">
</g>
      <g
         id="g4867">
</g>
      <g
         id="g4869">
</g>
      <g
         id="g4871">
</g>
      <g
         id="g4873">
</g>
      <g
         id="g4875">
</g>
      <g
         id="g4877">
</g>
      <g
         id="g4879">
</g>
      <g
         id="g4881">
</g>
      <g
         id="g4883">
</g>
      <g
         id="g4885">
</g>
      <g
         id="g4887">
</g>
    </g>
  </g>
</svg>
